{"glyphs":{"0":{"ha":694,"x_min":174,"x_max":694,"o":"m 347 938 l 522 939 l 521 764 l 347 764 l 347 938 m 174 764 l 347 764 l 347 590 l 521 590 l 521 764 l 694 764 l 694 590 l 694 417 l 694 243 l 694 69 l 521 69 l 521 -104 l 347 -104 l 347 69 l 521 69 l 522 419 l 347 419 l 347 69 l 174 69 l 174 243 l 174 417 l 174 590 l 174 764 z "},"1":{"ha":694,"x_min":174,"x_max":694,"o":"m 347 938 l 522 939 l 521 590 l 521 417 l 521 243 l 521 69 l 694 69 l 694 -104 l 521 -104 l 347 -104 l 174 -104 l 174 69 l 347 69 l 347 243 l 347 417 l 347 590 l 174 590 l 174 764 l 347 764 l 347 938 z "},"2":{"ha":694,"x_min":174,"x_max":694,"o":"m 347 938 l 522 939 l 521 764 l 347 764 l 347 938 m 174 764 l 347 764 l 347 590 l 174 590 l 174 764 m 521 764 l 694 764 l 694 417 l 521 417 l 521 590 l 521 764 m 347 417 l 521 417 l 521 243 l 347 243 l 347 417 m 174 243 l 347 243 l 347 69 l 521 69 l 694 69 l 694 -104 l 521 -104 l 347 -104 l 174 -104 l 174 69 l 174 243 z "},"3":{"ha":694,"x_min":174,"x_max":694,"o":"m 174 938 l 521 938 l 694 938 l 694 764 l 694 590 l 521 590 l 521 417 l 694 417 l 694 243 l 694 69 l 521 69 l 521 -104 l 347 -104 l 347 69 l 174 69 l 174 243 l 347 243 l 347 69 l 521 69 l 521 243 l 521 417 l 347 417 l 347 590 l 521 590 l 521 764 l 347 764 l 174 764 l 174 938 z "},"4":{"ha":694,"x_min":174,"x_max":694,"o":"m 521 938 l 694 939 l 694 590 l 694 417 l 694 243 l 694 69 l 694 -104 l 521 -104 l 521 69 l 521 243 l 347 243 l 174 243 l 174 417 l 174 590 l 347 590 l 347 417 l 521 417 l 521 590 l 347 590 l 347 764 l 521 764 l 521 938 z "},"5":{"ha":694,"x_min":174,"x_max":694,"o":"m 174 938 l 521 938 l 694 938 l 694 764 l 521 764 l 347 764 l 347 590 l 521 590 l 521 417 l 694 417 l 694 243 l 694 69 l 521 69 l 521 -104 l 347 -104 l 347 69 l 174 69 l 174 243 l 347 243 l 347 69 l 521 69 l 521 243 l 521 417 l 347 417 l 174 417 l 174 590 l 174 764 l 174 938 z "},"6":{"ha":694,"x_min":174,"x_max":694,"o":"m 347 938 l 694 938 l 694 764 l 521 764 l 347 764 l 347 938 m 174 764 l 347 764 l 347 590 l 521 590 l 521 417 l 347 417 l 347 243 l 347 69 l 174 69 l 174 243 l 174 417 l 174 590 l 174 764 m 521 417 l 694 417 l 694 69 l 521 69 l 521 243 l 521 417 m 347 69 l 521 69 l 521 -104 l 347 -104 l 347 69 z "},"7":{"ha":694,"x_min":174,"x_max":694,"o":"m 174 938 l 521 938 l 694 938 l 694 764 l 694 590 l 694 417 l 521 417 l 521 243 l 521 69 l 521 -104 l 347 -104 l 347 69 l 347 243 l 347 417 l 521 417 l 521 590 l 521 764 l 347 764 l 174 764 l 174 938 z "},"8":{"ha":694,"x_min":174,"x_max":694,"o":"m 347 938 l 522 939 l 521 764 l 347 764 l 347 938 m 174 764 l 347 764 l 347 590 l 174 590 l 174 764 m 521 764 l 694 764 l 694 590 l 521 590 l 521 764 m 347 590 l 521 590 l 521 417 l 347 417 l 347 590 m 174 417 l 347 417 l 347 69 l 174 69 l 174 243 l 174 417 m 521 417 l 694 417 l 694 69 l 521 69 l 521 243 l 521 417 m 347 69 l 521 69 l 521 -104 l 347 -104 l 347 69 z "},"9":{"ha":694,"x_min":174,"x_max":694,"o":"m 347 938 l 522 939 l 521 764 l 347 764 l 347 938 m 174 764 l 347 764 l 347 417 l 174 417 l 174 590 l 174 764 m 521 764 l 694 764 l 694 417 l 694 243 l 694 69 l 521 69 l 521 243 l 347 243 l 347 417 l 521 417 l 521 590 l 521 764 m 174 69 l 521 69 l 521 -104 l 347 -104 l 174 -104 l 174 69 z "},"\u0000":{"ha":0,"x_min":0,"x_max":0,"o":""},"\u0001":{"ha":694,"x_min":0,"x_max":694,"o":"m 347 938 l 521 938 l 521 764 l 694 764 l 694 590 l 694 417 l 694 243 l 521 243 l 521 69 l 347 69 l 347 243 l 174 243 l 174 417 l 0 417 l 0 590 l 174 590 l 174 764 l 347 764 l 347 938 z "},"\u0002":{"ha":694,"x_min":174,"x_max":694,"o":"m 347 938 l 521 938 l 521 764 l 347 764 l 347 938 m 174 764 l 347 764 l 347 590 l 174 590 l 174 764 m 521 764 l 694 764 l 694 590 l 521 590 l 521 764 m 347 590 l 521 590 l 521 417 l 347 417 l 347 590 m 174 417 l 347 417 l 347 243 l 174 243 l 174 417 m 521 417 l 694 417 l 694 243 l 521 243 l 521 417 m 347 243 l 521 243 l 521 69 l 347 69 l 347 243 m 174 69 l 347 69 l 347 -104 l 174 -104 l 174 69 m 521 69 l 694 69 l 694 -104 l 521 -104 l 521 69 m 347 -104 l 521 -104 l 521 -278 l 347 -278 l 347 -104 z "},"\u0003":{"ha":694,"x_min":174,"x_max":694,"o":"m 174 1111 l 346 1113 l 347 764 l 521 764 l 521 938 l 521 1111 l 694 1111 l 694 938 l 694 764 l 694 590 l 694 417 l 694 243 l 694 69 l 694 -104 l 694 -278 l 521 -278 l 521 -104 l 521 69 l 347 69 l 346 242 l 525 242 l 525 592 l 346 592 l 346 242 l 174 243 l 174 417 l 174 590 l 174 764 l 174 938 l 174 1111 z "},"\u0004":{"ha":694,"x_min":0,"x_max":694,"o":"m 0 1111 l 347 1111 l 521 1111 l 521 938 l 347 938 l 174 938 l 174 764 l 347 764 l 347 590 l 521 590 l 694 590 l 694 417 l 521 417 l 521 243 l 694 243 l 694 69 l 521 69 l 521 -104 l 521 -278 l 347 -278 l 347 -104 l 347 69 l 347 243 l 347 417 l 347 590 l 174 590 l 174 417 l 174 243 l 0 243 l 0 417 l 0 590 l 0 764 l 0 938 l 0 1111 z "},"\u0005":{"ha":694,"x_min":0,"x_max":694,"o":"m 174 1111 l 521 1111 l 521 938 l 347 938 l 174 938 l 174 1111 m 0 938 l 174 938 l 174 764 l 0 764 l 0 938 m 174 764 l 521 764 l 521 590 l 347 590 l 174 590 l 174 764 m 347 417 l 694 417 l 694 243 l 521 243 l 521 69 l 694 69 l 694 -104 l 521 -104 l 521 -278 l 347 -278 l 347 -104 l 347 69 l 347 243 l 347 417 z "},"\u0006":{"ha":694,"x_min":0,"x_max":694,"o":"m 0 1111 l 175 1113 l 174 938 l 174 764 l 174 590 l 347 590 l 521 590 l 521 417 l 694 417 l 694 243 l 521 243 l 521 69 l 694 69 l 694 -104 l 521 -104 l 521 -278 l 347 -278 l 347 -104 l 347 69 l 347 243 l 347 417 l 174 417 l 0 417 l 0 590 l 0 764 l 0 938 l 0 1111 z "},"\u0007":{"ha":694,"x_min":174,"x_max":694,"o":"m 174 938 l 521 938 l 694 938 l 694 764 l 694 590 l 694 417 l 694 243 l 521 243 l 347 243 l 174 243 l 174 417 l 174 590 l 174 764 l 174 938 z "},"\b":{"ha":694,"x_min":174,"x_max":694,"o":"m 174 243 l 521 243 l 694 243 l 694 69 l 521 69 l 347 69 l 174 69 l 174 243 m 347 938 l 521 938 l 521 764 l 694 764 l 694 590 l 521 590 l 521 417 l 347 417 l 347 590 l 174 590 l 174 764 l 347 764 l 347 938 z "},"\t":{"ha":694,"x_min":0,"x_max":694,"o":"m 0 1111 l 175 1113 l 174 938 l 347 938 l 347 764 l 521 764 l 521 938 l 521 1111 l 694 1111 l 694 938 l 694 764 l 694 590 l 694 417 l 521 417 l 521 243 l 521 69 l 521 -104 l 694 -104 l 694 -278 l 521 -278 l 347 -278 l 347 -104 l 347 69 l 347 243 l 347 417 l 521 417 l 521 590 l 347 590 l 347 764 l 174 764 l 174 590 l 174 417 l 0 417 l 0 590 l 0 764 l 0 938 l 0 1111 z "},"\n":{"ha":694,"x_min":0,"x_max":694,"o":"m 0 1111 l 175 1113 l 174 938 l 174 764 l 174 590 l 347 590 l 347 764 l 347 938 l 347 1111 l 521 1111 l 521 938 l 521 764 l 521 590 l 347 590 l 347 417 l 521 417 l 694 417 l 694 243 l 694 69 l 694 -104 l 694 -278 l 521 -278 l 521 -104 l 521 69 l 521 243 l 347 243 l 347 417 l 174 417 l 174 590 l 0 590 l 0 764 l 0 938 l 0 1111 z "},"\u000b":{"ha":694,"x_min":174,"x_max":694,"o":"m 521 1111 l 694 1113 l 694 764 l 694 590 l 694 417 l 521 417 l 347 417 l 174 417 l 174 590 l 347 590 l 521 590 l 521 764 l 521 938 l 521 1111 z "},"\f":{"ha":463,"x_min":0,"x_max":0,"o":""},"\r":{"ha":694,"x_min":174,"x_max":521,"o":"m 174 590 l 521 590 l 521 417 l 347 417 l 347 243 l 347 69 l 347 -104 l 347 -278 l 174 -278 l 174 -104 l 174 69 l 174 243 l 174 417 l 174 590 z "},"\u000e":{"ha":694,"x_min":174,"x_max":521,"o":"m 174 1111 l 346 1113 l 347 764 l 347 590 l 521 590 l 521 417 l 347 417 l 174 417 l 174 590 l 174 764 l 174 938 l 174 1111 z "},"\u000f":{"ha":694,"x_min":0,"x_max":694,"o":"m 347 1111 l 521 1113 l 521 764 l 521 590 l 694 590 l 694 417 l 521 417 l 521 243 l 521 69 l 521 -104 l 521 -278 l 347 -278 l 347 -104 l 347 69 l 347 243 l 347 417 l 174 417 l 0 417 l 0 590 l 174 590 l 347 590 l 347 764 l 347 938 l 347 1111 z "},"\u0010":{"ha":694,"x_min":174,"x_max":694,"o":"m 174 938 l 521 938 l 694 938 l 694 764 l 521 764 l 347 764 l 174 764 l 174 938 z "},"\u0011":{"ha":694,"x_min":174,"x_max":694,"o":"m 174 764 l 521 764 l 694 764 l 694 590 l 521 590 l 347 590 l 174 590 l 174 764 z "},"\u0012":{"ha":694,"x_min":174,"x_max":694,"o":"m 174 590 l 521 590 l 694 590 l 694 417 l 521 417 l 347 417 l 174 417 l 174 590 z "},"\u0013":{"ha":694,"x_min":174,"x_max":694,"o":"m 174 417 l 521 417 l 694 417 l 694 243 l 521 243 l 347 243 l 174 243 l 174 417 z "},"\u0014":{"ha":694,"x_min":174,"x_max":694,"o":"m 174 243 l 521 243 l 694 243 l 694 69 l 521 69 l 347 69 l 174 69 l 174 243 z "},"\u0015":{"ha":694,"x_min":174,"x_max":521,"o":"m 174 1111 l 346 1113 l 347 764 l 347 590 l 521 590 l 521 417 l 347 417 l 347 243 l 347 69 l 347 -104 l 347 -278 l 174 -278 l 174 -104 l 174 69 l 174 243 l 174 417 l 174 590 l 174 764 l 174 938 l 174 1111 z "},"\u0016":{"ha":694,"x_min":174,"x_max":694,"o":"m 521 1111 l 694 1113 l 694 764 l 694 590 l 694 417 l 694 243 l 694 69 l 694 -104 l 694 -278 l 521 -278 l 521 -104 l 521 69 l 521 243 l 521 417 l 347 417 l 174 417 l 174 590 l 347 590 l 521 590 l 521 764 l 521 938 l 521 1111 z "},"\u0017":{"ha":694,"x_min":0,"x_max":694,"o":"m 347 1111 l 521 1113 l 521 764 l 521 590 l 521 417 l 694 417 l 694 243 l 521 243 l 347 243 l 174 243 l 0 243 l 0 417 l 174 417 l 347 417 l 347 590 l 347 764 l 347 938 l 347 1111 z "},"\u0018":{"ha":694,"x_min":0,"x_max":694,"o":"m 0 417 l 347 417 l 521 417 l 694 417 l 694 243 l 521 243 l 521 69 l 521 -104 l 521 -278 l 347 -278 l 347 -104 l 347 69 l 347 243 l 174 243 l 0 243 l 0 417 z "},"\u0019":{"ha":694,"x_min":347,"x_max":521,"o":"m 347 1111 l 521 1113 l 521 764 l 521 590 l 521 417 l 521 243 l 521 69 l 521 -104 l 521 -278 l 347 -278 l 347 -104 l 347 69 l 347 243 l 347 417 l 347 590 l 347 764 l 347 938 l 347 1111 z "},"\u001a":{"ha":694,"x_min":174,"x_max":694,"o":"m 521 938 l 694 939 l 694 764 l 521 764 l 521 938 m 347 764 l 521 764 l 521 590 l 347 590 l 347 764 m 174 590 l 347 590 l 347 417 l 174 417 l 174 590 m 347 417 l 522 417 l 521 243 l 347 243 l 347 417 m 521 243 l 694 244 l 694 69 l 694 -104 l 521 -104 l 347 -104 l 174 -104 l 174 69 l 347 69 l 521 69 l 521 243 z "},"\u001b":{"ha":694,"x_min":174,"x_max":694,"o":"m 174 938 l 347 939 l 347 764 l 521 764 l 521 590 l 694 590 l 694 417 l 521 417 l 521 243 l 347 243 l 347 69 l 521 69 l 694 69 l 694 -104 l 521 -104 l 347 -104 l 174 -104 l 174 69 l 174 243 l 347 243 l 347 417 l 521 417 l 521 590 l 347 590 l 347 764 l 174 764 l 174 938 z "},"\u001c":{"ha":694,"x_min":0,"x_max":694,"o":"m 0 938 l 347 938 l 521 938 l 694 938 l 694 764 l 694 590 l 694 417 l 694 243 l 694 69 l 521 69 l 521 243 l 521 417 l 521 590 l 521 764 l 347 764 l 347 590 l 347 417 l 347 243 l 347 69 l 174 69 l 174 243 l 174 417 l 174 590 l 174 764 l 0 764 l 0 938 z "},"\u001d":{"ha":694,"x_min":0,"x_max":694,"o":"m 521 938 l 694 938 l 694 764 l 694 590 l 521 590 l 521 417 l 694 417 l 694 243 l 521 243 l 347 243 l 347 69 l 174 69 l 174 243 l 0 243 l 0 417 l 174 417 l 347 417 l 347 590 l 174 590 l 0 590 l 0 764 l 174 764 l 347 764 l 521 764 l 521 938 z "},"\u001e":{"ha":694,"x_min":0,"x_max":694,"o":"m 347 1111 l 694 1111 l 694 938 l 521 938 l 347 938 l 347 1111 m 174 938 l 347 938 l 347 764 l 521 764 l 521 590 l 347 590 l 347 417 l 521 417 l 694 417 l 694 243 l 694 69 l 521 69 l 521 243 l 347 243 l 347 69 l 347 -104 l 174 -104 l 174 69 l 0 69 l 0 243 l 174 243 l 174 417 l 174 590 l 0 590 l 0 764 l 174 764 l 174 938 z "},"\u001f":{"ha":694,"x_min":347,"x_max":522,"o":"m 347 590 l 522 589 l 521 417 l 347 417 l 347 590 z "}," ":{"ha":694,"x_min":0,"x_max":0,"o":""},"!":{"ha":694,"x_min":347,"x_max":522,"o":"m 347 69 l 522 69 l 521 -104 l 347 -104 l 347 69 m 347 938 l 522 939 l 521 590 l 521 417 l 521 243 l 347 243 l 347 417 l 347 590 l 347 764 l 347 938 z "},"\"":{"ha":694,"x_min":174,"x_max":694,"o":"m 521 938 l 694 938 l 694 590 l 521 590 l 521 764 l 521 938 m 174 938 l 347 938 l 347 590 l 174 590 l 174 764 l 174 938 z "},"#":{"ha":694,"x_min":174,"x_max":694,"o":"m 522 592 l 344 592 l 344 244 l 522 244 l 522 592 m 174 938 l 347 939 l 347 764 l 521 764 l 521 938 l 694 938 l 694 764 l 694 590 l 694 417 l 694 243 l 694 69 l 694 -104 l 521 -104 l 521 69 l 347 69 l 347 -104 l 174 -104 l 174 69 l 174 243 l 174 417 l 174 590 l 174 764 l 174 938 z "},"$":{"ha":694,"x_min":174,"x_max":694,"o":"m 347 1111 l 521 1113 l 521 764 l 347 764 l 347 938 l 347 1111 m 174 764 l 347 764 l 347 590 l 174 590 l 174 764 m 521 764 l 694 763 l 694 590 l 521 590 l 521 764 m 347 590 l 521 590 l 521 417 l 347 417 l 347 590 m 521 417 l 694 417 l 694 69 l 521 69 l 521 243 l 521 417 m 174 243 l 346 242 l 347 69 l 174 69 l 174 243 m 347 69 l 521 69 l 521 -278 l 347 -278 l 347 -104 l 347 69 z "},"%":{"ha":694,"x_min":174,"x_max":694,"o":"m 521 938 l 694 939 l 694 590 l 521 590 l 521 764 l 521 938 m 347 590 l 521 590 l 521 243 l 347 243 l 347 417 l 347 590 m 174 243 l 347 243 l 347 -104 l 174 -104 l 174 69 l 174 243 m 521 69 l 694 69 l 694 -104 l 521 -104 l 521 69 m 174 938 l 347 939 l 347 764 l 174 764 l 174 938 z "},"&":{"ha":694,"x_min":174,"x_max":694,"o":"m 347 1111 l 521 1111 l 521 938 l 347 938 l 347 1111 m 174 938 l 347 938 l 347 764 l 174 764 l 174 938 m 521 938 l 694 938 l 694 764 l 521 764 l 521 938 m 347 764 l 521 764 l 521 590 l 347 590 l 347 764 m 174 590 l 347 590 l 347 243 l 521 243 l 521 69 l 694 69 l 694 -104 l 521 -104 l 347 -104 l 347 69 l 174 69 l 174 243 l 174 417 l 174 590 m 521 590 l 694 590 l 694 243 l 521 243 l 521 417 l 521 590 z "},"'":{"ha":694,"x_min":347,"x_max":521,"o":"m 347 938 l 521 938 l 521 764 l 521 590 l 347 590 l 347 764 l 347 938 z "},"(":{"ha":694,"x_min":174,"x_max":522,"o":"m 347 938 l 522 939 l 521 764 l 347 764 l 347 938 m 174 764 l 347 764 l 347 417 l 347 243 l 347 69 l 174 69 l 174 243 l 174 417 l 174 590 l 174 764 m 347 69 l 522 69 l 521 -104 l 347 -104 l 347 69 z "},")":{"ha":694,"x_min":174,"x_max":521,"o":"m 174 938 l 347 939 l 347 764 l 521 764 l 521 590 l 521 417 l 521 243 l 521 69 l 347 69 l 347 -104 l 174 -104 l 174 69 l 347 69 l 347 243 l 347 417 l 347 590 l 347 764 l 174 764 l 174 938 z "},"*":{"ha":694,"x_min":174,"x_max":694,"o":"m 174 938 l 347 938 l 347 764 l 521 764 l 521 938 l 694 938 l 694 764 l 521 764 l 521 590 l 694 590 l 694 417 l 521 417 l 521 243 l 694 243 l 694 69 l 521 69 l 521 243 l 347 243 l 347 69 l 174 69 l 174 243 l 347 243 l 347 417 l 174 417 l 174 590 l 347 590 l 347 764 l 174 764 l 174 938 z "},"+":{"ha":694,"x_min":174,"x_max":694,"o":"m 347 938 l 521 938 l 521 590 l 694 590 l 694 417 l 521 417 l 521 243 l 521 69 l 347 69 l 347 243 l 347 417 l 174 417 l 174 590 l 347 590 l 347 764 l 347 938 z "},",":{"ha":694,"x_min":174,"x_max":521,"o":"m 347 243 l 521 244 l 521 -104 l 347 -104 l 347 69 l 347 243 m 174 -104 l 347 -104 l 347 -278 l 174 -278 l 174 -104 z "},"-":{"ha":694,"x_min":174,"x_max":694,"o":"m 174 590 l 521 590 l 694 590 l 694 417 l 521 417 l 347 417 l 174 417 l 174 590 z "},".":{"ha":694,"x_min":347,"x_max":521,"o":"m 347 243 l 521 244 l 521 -104 l 347 -104 l 347 69 l 347 243 z "},"/":{"ha":694,"x_min":174,"x_max":694,"o":"m 521 938 l 694 939 l 694 590 l 521 590 l 521 764 l 521 938 m 347 590 l 521 590 l 521 243 l 347 243 l 347 417 l 347 590 m 174 243 l 347 244 l 347 -104 l 174 -104 l 174 69 l 174 243 z "},":":{"ha":694,"x_min":347,"x_max":522,"o":"m 347 243 l 522 244 l 521 69 l 347 69 l 347 243 m 347 764 l 522 764 l 521 590 l 347 590 l 347 764 z "},";":{"ha":694,"x_min":174,"x_max":522,"o":"m 347 764 l 522 764 l 521 590 l 347 590 l 347 764 m 347 243 l 522 244 l 521 69 l 347 69 l 347 243 m 174 69 l 347 69 l 347 -104 l 174 -104 l 174 69 z "},"<":{"ha":694,"x_min":174,"x_max":694,"o":"m 521 764 l 694 764 l 694 590 l 521 590 l 521 764 m 347 590 l 521 590 l 521 417 l 347 417 l 347 590 m 174 417 l 347 417 l 347 243 l 174 243 l 174 417 m 347 243 l 522 244 l 521 69 l 347 69 l 347 243 m 521 69 l 694 69 l 694 -104 l 521 -104 l 521 69 z "},"=":{"ha":694,"x_min":174,"x_max":694,"o":"m 174 417 l 521 417 l 694 417 l 694 243 l 521 243 l 347 243 l 174 243 l 174 417 m 174 764 l 521 764 l 694 764 l 694 590 l 521 590 l 347 590 l 174 590 l 174 764 z "},">":{"ha":694,"x_min":174,"x_max":694,"o":"m 174 764 l 347 764 l 347 590 l 521 590 l 521 417 l 694 417 l 694 243 l 521 243 l 521 69 l 347 69 l 347 -104 l 174 -104 l 174 69 l 347 69 l 347 243 l 521 243 l 521 417 l 347 417 l 347 590 l 174 590 l 174 764 z "},"?":{"ha":694,"x_min":174,"x_max":694,"o":"m 347 938 l 522 939 l 521 764 l 347 764 l 347 938 m 174 764 l 347 764 l 347 590 l 174 590 l 174 764 m 521 764 l 694 764 l 694 417 l 521 417 l 521 590 l 521 764 m 347 417 l 521 417 l 521 243 l 347 243 l 347 417 m 347 69 l 522 69 l 521 -104 l 347 -104 l 347 69 z "},"@":{"ha":694,"x_min":174,"x_max":694,"o":"m 347 938 l 522 939 l 521 764 l 347 764 l 347 938 m 174 764 l 347 764 l 347 417 l 347 243 l 347 69 l 174 69 l 174 243 l 174 417 l 174 590 l 174 764 m 521 764 l 694 764 l 694 417 l 521 417 l 521 590 l 521 764 m 347 69 l 694 69 l 694 -104 l 521 -104 l 347 -104 l 347 69 z "},"A":{"ha":694,"x_min":174,"x_max":694,"o":"m 347 938 l 522 939 l 521 764 l 347 764 l 347 938 m 174 764 l 347 764 l 347 417 l 521 417 l 521 590 l 521 764 l 694 764 l 694 590 l 694 417 l 694 243 l 694 69 l 694 -104 l 521 -104 l 521 69 l 521 243 l 347 243 l 347 69 l 347 -104 l 174 -104 l 174 69 l 174 243 l 174 417 l 174 590 l 174 764 z "},"B":{"ha":694,"x_min":174,"x_max":694,"o":"m 174 938 l 521 938 l 522 764 l 347 764 l 347 589 l 522 589 l 522 764 l 694 764 l 694 590 l 521 590 l 522 417 l 694 417 l 694 243 l 694 69 l 522 69 l 522 417 l 347 417 l 347 69 l 522 69 l 521 -104 l 347 -104 l 174 -104 l 174 69 l 174 243 l 174 417 l 174 590 l 174 764 l 174 938 z "},"C":{"ha":694,"x_min":174,"x_max":694,"o":"m 347 938 l 522 939 l 521 764 l 347 764 l 347 938 m 174 764 l 347 764 l 347 417 l 347 243 l 347 69 l 174 69 l 174 243 l 174 417 l 174 590 l 174 764 m 521 764 l 694 764 l 694 590 l 521 590 l 521 764 m 521 243 l 694 244 l 694 69 l 521 69 l 521 243 m 347 69 l 521 69 l 521 -104 l 347 -104 l 347 69 z "},"D":{"ha":694,"x_min":174,"x_max":694,"o":"m 174 938 l 521 938 l 522 764 l 347 764 l 347 69 l 521 69 l 522 764 l 694 764 l 694 590 l 694 417 l 694 243 l 694 69 l 521 69 l 521 -104 l 347 -104 l 174 -104 l 174 69 l 174 243 l 174 417 l 174 590 l 174 764 l 174 938 z "},"E":{"ha":694,"x_min":174,"x_max":694,"o":"m 174 938 l 521 938 l 694 938 l 694 764 l 521 764 l 347 764 l 347 590 l 521 590 l 694 590 l 694 417 l 521 417 l 347 417 l 347 243 l 347 69 l 521 69 l 694 69 l 694 -104 l 521 -104 l 347 -104 l 174 -104 l 174 69 l 174 243 l 174 417 l 174 590 l 174 764 l 174 938 z "},"F":{"ha":694,"x_min":174,"x_max":694,"o":"m 174 938 l 521 938 l 694 938 l 694 764 l 521 764 l 347 764 l 347 590 l 521 590 l 694 590 l 694 417 l 521 417 l 347 417 l 347 243 l 347 69 l 347 -104 l 174 -104 l 174 69 l 174 243 l 174 417 l 174 590 l 174 764 l 174 938 z "},"G":{"ha":694,"x_min":174,"x_max":694,"o":"m 347 938 l 522 939 l 521 764 l 347 764 l 347 938 m 174 764 l 347 764 l 347 590 l 347 417 l 347 243 l 347 69 l 174 69 l 174 243 l 174 417 l 174 590 l 174 764 m 521 764 l 694 764 l 694 590 l 521 590 l 521 764 m 521 417 l 694 417 l 694 243 l 694 69 l 521 69 l 521 243 l 521 417 m 347 69 l 521 69 l 521 -104 l 347 -104 l 347 69 z "},"H":{"ha":694,"x_min":174,"x_max":694,"o":"m 174 938 l 347 939 l 347 590 l 521 590 l 521 764 l 521 938 l 694 938 l 694 764 l 694 590 l 694 417 l 694 243 l 694 69 l 694 -104 l 521 -104 l 521 69 l 521 243 l 521 417 l 347 417 l 347 243 l 347 69 l 347 -104 l 174 -104 l 174 69 l 174 243 l 174 417 l 174 590 l 174 764 l 174 938 z "},"I":{"ha":694,"x_min":174,"x_max":694,"o":"m 174 938 l 521 938 l 694 938 l 694 764 l 521 764 l 521 590 l 521 417 l 521 243 l 521 69 l 694 69 l 694 -104 l 521 -104 l 347 -104 l 174 -104 l 174 69 l 347 69 l 347 243 l 347 417 l 347 590 l 347 764 l 174 764 l 174 938 z "},"J":{"ha":694,"x_min":174,"x_max":694,"o":"m 521 938 l 694 939 l 694 590 l 694 417 l 694 243 l 694 69 l 521 69 l 521 243 l 521 417 l 521 590 l 521 764 l 521 938 m 174 243 l 347 244 l 347 69 l 174 69 l 174 243 m 347 69 l 521 69 l 521 -104 l 347 -104 l 347 69 z "},"K":{"ha":694,"x_min":174,"x_max":694,"o":"m 174 938 l 347 939 l 347 590 l 521 590 l 521 764 l 521 938 l 694 938 l 694 764 l 694 590 l 521 590 l 521 417 l 694 417 l 694 243 l 694 69 l 694 -104 l 521 -104 l 521 69 l 521 243 l 521 417 l 347 417 l 347 243 l 347 69 l 347 -104 l 174 -104 l 174 69 l 174 243 l 174 417 l 174 590 l 174 764 l 174 938 z "},"L":{"ha":694,"x_min":174,"x_max":694,"o":"m 174 938 l 347 939 l 347 590 l 347 417 l 347 243 l 347 69 l 521 69 l 694 69 l 694 -104 l 521 -104 l 347 -104 l 174 -104 l 174 69 l 174 243 l 174 417 l 174 590 l 174 764 l 174 938 z "},"M":{"ha":694,"x_min":174,"x_max":694,"o":"m 174 938 l 347 939 l 347 764 l 521 764 l 521 938 l 694 938 l 694 764 l 694 590 l 694 417 l 694 243 l 694 69 l 694 -104 l 521 -104 l 521 69 l 521 243 l 521 417 l 521 590 l 347 590 l 347 417 l 347 243 l 347 69 l 347 -104 l 174 -104 l 174 69 l 174 243 l 174 417 l 174 590 l 174 764 l 174 938 z "},"N":{"ha":694,"x_min":174,"x_max":694,"o":"m 521 938 l 694 939 l 694 764 l 694 590 l 694 417 l 694 243 l 694 69 l 521 69 l 521 243 l 347 243 l 347 69 l 347 -104 l 174 -104 l 174 69 l 174 243 l 174 417 l 174 590 l 174 764 l 347 764 l 347 590 l 521 590 l 521 764 l 521 938 z "},"O":{"ha":694,"x_min":174,"x_max":694,"o":"m 347 938 l 522 939 l 521 764 l 347 764 l 347 938 m 174 764 l 347 764 l 347 417 l 347 243 l 347 69 l 174 69 l 174 243 l 174 417 l 174 590 l 174 764 m 521 764 l 694 764 l 694 417 l 694 243 l 694 69 l 521 69 l 521 243 l 521 417 l 521 590 l 521 764 m 347 69 l 521 69 l 521 -104 l 347 -104 l 347 69 z "},"P":{"ha":694,"x_min":174,"x_max":694,"o":"m 344 764 l 344 417 l 521 417 l 521 764 l 344 764 m 174 938 l 521 938 l 521 764 l 694 764 l 694 590 l 694 417 l 521 417 l 521 243 l 347 243 l 347 69 l 347 -104 l 174 -104 l 174 69 l 174 243 l 174 417 l 174 590 l 174 764 l 174 938 z "},"Q":{"ha":694,"x_min":174,"x_max":694,"o":"m 347 938 l 522 939 l 521 764 l 347 764 l 347 938 m 174 764 l 347 764 l 347 417 l 347 243 l 521 243 l 521 69 l 694 69 l 694 -104 l 521 -104 l 347 -104 l 347 69 l 174 69 l 174 243 l 174 417 l 174 590 l 174 764 m 521 764 l 694 764 l 694 417 l 694 243 l 521 243 l 521 417 l 521 590 l 521 764 z "},"R":{"ha":694,"x_min":174,"x_max":694,"o":"m 347 764 l 347 417 l 522 417 l 521 764 l 347 764 m 174 938 l 521 938 l 521 764 l 694 764 l 694 590 l 694 417 l 521 417 l 521 243 l 694 243 l 694 69 l 694 -104 l 521 -104 l 521 69 l 521 243 l 347 243 l 347 69 l 347 -104 l 174 -104 l 174 69 l 174 243 l 174 417 l 174 590 l 174 764 l 174 938 z "},"S":{"ha":694,"x_min":174,"x_max":694,"o":"m 347 938 l 522 939 l 521 764 l 347 764 l 347 938 m 174 764 l 347 764 l 347 590 l 174 590 l 174 764 m 521 764 l 694 764 l 694 590 l 521 590 l 521 764 m 347 590 l 521 590 l 521 417 l 347 417 l 347 590 m 521 417 l 694 417 l 694 69 l 521 69 l 521 243 l 521 417 m 174 243 l 347 244 l 347 69 l 174 69 l 174 243 m 347 69 l 521 69 l 521 -104 l 347 -104 l 347 69 z "},"T":{"ha":694,"x_min":174,"x_max":694,"o":"m 174 938 l 521 938 l 694 938 l 694 764 l 521 764 l 521 590 l 521 417 l 521 243 l 521 69 l 521 -104 l 347 -104 l 347 69 l 347 243 l 347 417 l 347 590 l 347 764 l 174 764 l 174 938 z "},"U":{"ha":694,"x_min":174,"x_max":694,"o":"m 174 938 l 347 939 l 347 590 l 347 417 l 347 243 l 347 69 l 521 69 l 521 243 l 521 417 l 521 590 l 521 764 l 521 938 l 694 938 l 694 764 l 694 590 l 694 417 l 694 243 l 694 69 l 694 -104 l 521 -104 l 347 -104 l 174 -104 l 174 69 l 174 243 l 174 417 l 174 590 l 174 764 l 174 938 z "},"V":{"ha":694,"x_min":174,"x_max":694,"o":"m 174 938 l 347 939 l 347 590 l 347 417 l 347 243 l 347 69 l 521 69 l 521 243 l 521 417 l 521 590 l 521 764 l 521 938 l 694 938 l 694 764 l 694 590 l 694 417 l 694 243 l 694 69 l 521 69 l 521 -104 l 347 -104 l 347 69 l 174 69 l 174 243 l 174 417 l 174 590 l 174 764 l 174 938 z "},"W":{"ha":694,"x_min":174,"x_max":694,"o":"m 174 938 l 347 939 l 347 590 l 347 417 l 347 243 l 521 243 l 521 417 l 521 590 l 521 764 l 521 938 l 694 938 l 694 764 l 694 590 l 694 417 l 694 243 l 694 69 l 694 -104 l 521 -104 l 521 69 l 347 69 l 347 -104 l 174 -104 l 174 69 l 174 243 l 174 417 l 174 590 l 174 764 l 174 938 z "},"X":{"ha":694,"x_min":174,"x_max":694,"o":"m 174 938 l 347 939 l 347 590 l 521 590 l 521 764 l 521 938 l 694 938 l 694 764 l 694 590 l 521 590 l 521 417 l 694 417 l 694 243 l 694 69 l 694 -104 l 521 -104 l 521 69 l 521 243 l 521 417 l 347 417 l 347 243 l 347 69 l 347 -104 l 174 -104 l 174 69 l 174 243 l 174 417 l 347 417 l 347 590 l 174 590 l 174 764 l 174 938 z "},"Y":{"ha":694,"x_min":174,"x_max":694,"o":"m 174 938 l 347 939 l 347 590 l 521 590 l 521 764 l 521 938 l 694 938 l 694 764 l 694 590 l 521 590 l 521 417 l 521 243 l 521 69 l 521 -104 l 347 -104 l 347 69 l 347 243 l 347 417 l 347 590 l 174 590 l 174 764 l 174 938 z "},"Z":{"ha":694,"x_min":174,"x_max":694,"o":"m 174 938 l 521 938 l 694 938 l 694 764 l 694 590 l 521 590 l 521 243 l 347 243 l 347 69 l 521 69 l 694 69 l 694 -104 l 521 -104 l 347 -104 l 174 -104 l 174 69 l 174 243 l 347 243 l 347 590 l 521 590 l 521 764 l 347 764 l 174 764 l 174 938 z "},"[":{"ha":694,"x_min":174,"x_max":521,"o":"m 174 938 l 521 938 l 521 764 l 347 764 l 347 590 l 347 417 l 347 243 l 347 69 l 521 69 l 521 -104 l 347 -104 l 174 -104 l 174 69 l 174 243 l 174 417 l 174 590 l 174 764 l 174 938 z "},"\\":{"ha":694,"x_min":174,"x_max":694,"o":"m 174 938 l 347 939 l 347 590 l 521 590 l 521 417 l 521 243 l 694 243 l 694 69 l 694 -104 l 521 -104 l 521 69 l 521 243 l 347 243 l 347 417 l 347 590 l 174 590 l 174 764 l 174 938 z "},"]":{"ha":694,"x_min":174,"x_max":521,"o":"m 174 938 l 521 938 l 521 764 l 521 590 l 521 417 l 521 243 l 521 69 l 521 -104 l 347 -104 l 174 -104 l 174 69 l 347 69 l 347 243 l 347 417 l 347 590 l 347 764 l 174 764 l 174 938 z "},"^":{"ha":694,"x_min":174,"x_max":694,"o":"m 347 938 l 521 938 l 521 764 l 347 764 l 347 938 m 174 764 l 347 764 l 347 590 l 174 590 l 174 764 m 521 764 l 694 764 l 694 590 l 521 590 l 521 764 z "},"_":{"ha":694,"x_min":0,"x_max":694,"o":"m 0 -104 l 347 -104 l 521 -104 l 694 -104 l 694 -278 l 521 -278 l 347 -278 l 174 -278 l 0 -278 l 0 -104 z "},"`":{"ha":694,"x_min":174,"x_max":521,"o":"m 174 938 l 347 938 l 347 764 l 521 764 l 521 590 l 347 590 l 347 764 l 174 764 l 174 938 z "},"a":{"ha":694,"x_min":174,"x_max":694,"o":"m 522 69 l 522 244 l 347 243 l 347 69 l 522 69 m 174 764 l 521 764 l 521 590 l 694 590 l 694 417 l 694 243 l 694 69 l 694 -104 l 521 -104 l 347 -104 l 347 69 l 174 69 l 174 243 l 347 243 l 347 417 l 521 417 l 521 590 l 347 590 l 174 590 l 174 764 z "},"b":{"ha":694,"x_min":174,"x_max":694,"o":"m 174 938 l 347 939 l 347 590 l 521 590 l 522 417 l 347 417 l 347 69 l 522 69 l 521 417 l 694 417 l 694 69 l 521 69 l 521 -104 l 174 -104 l 174 938 z "},"c":{"ha":694,"x_min":174,"x_max":694,"o":"m 347 764 l 694 764 l 694 590 l 521 590 l 347 590 l 347 764 m 174 590 l 347 590 l 347 243 l 347 69 l 174 69 l 174 243 l 174 417 l 174 590 m 347 69 l 694 69 l 694 -104 l 521 -104 l 347 -104 l 347 69 z "},"d":{"ha":694,"x_min":174,"x_max":694,"o":"m 521 938 l 694 938 l 694 590 l 694 417 l 694 243 l 694 69 l 694 -104 l 521 -104 l 347 -104 l 347 69 l 521 69 l 521 243 l 521 417 l 347 417 l 347 590 l 521 590 l 521 764 l 521 938 m 174 417 l 347 417 l 347 242 l 347 69 l 174 69 l 174 243 l 174 417 z "},"e":{"ha":694,"x_min":174,"x_max":694,"o":"m 347 764 l 522 764 l 521 590 l 347 590 l 347 764 m 174 590 l 347 590 l 347 417 l 521 417 l 521 590 l 694 590 l 694 417 l 694 243 l 521 243 l 347 243 l 347 69 l 521 69 l 694 69 l 694 -104 l 521 -104 l 347 -104 l 347 69 l 174 69 l 174 243 l 174 417 l 174 590 z "},"f":{"ha":694,"x_min":174,"x_max":694,"o":"m 521 938 l 694 939 l 694 764 l 521 764 l 521 938 m 347 764 l 521 764 l 521 590 l 694 590 l 694 417 l 521 417 l 521 243 l 521 69 l 521 -104 l 347 -104 l 347 69 l 347 243 l 347 417 l 174 417 l 174 590 l 347 590 l 347 764 z "},"g":{"ha":694,"x_min":174,"x_max":694,"o":"m 347 764 l 694 764 l 694 590 l 694 417 l 694 243 l 694 69 l 694 -104 l 521 -104 l 521 69 l 347 69 l 347 243 l 521 243 l 521 417 l 521 590 l 347 590 l 347 764 m 174 590 l 347 590 l 347 243 l 174 243 l 174 417 l 174 590 m 174 -104 l 521 -104 l 521 -278 l 347 -278 l 174 -278 l 174 -104 z "},"h":{"ha":694,"x_min":174,"x_max":694,"o":"m 174 938 l 347 939 l 347 590 l 521 590 l 521 417 l 694 417 l 694 243 l 694 69 l 694 -104 l 521 -104 l 521 69 l 521 243 l 521 417 l 347 417 l 347 243 l 347 69 l 347 -104 l 174 -104 l 174 69 l 174 243 l 174 417 l 174 590 l 174 764 l 174 938 z "},"i":{"ha":694,"x_min":174,"x_max":694,"o":"m 347 938 l 522 939 l 521 764 l 347 764 l 347 938 m 174 590 l 521 590 l 521 417 l 521 243 l 521 69 l 694 69 l 694 -104 l 521 -104 l 347 -104 l 174 -104 l 174 69 l 347 69 l 347 243 l 347 417 l 174 417 l 174 590 z "},"j":{"ha":694,"x_min":174,"x_max":694,"o":"m 521 938 l 694 938 l 694 764 l 521 764 l 521 938 m 347 590 l 694 590 l 694 417 l 694 243 l 694 69 l 694 -104 l 521 -104 l 521 69 l 521 243 l 521 417 l 347 417 l 347 590 m 174 -104 l 521 -104 l 521 -278 l 347 -278 l 174 -278 l 174 -104 z "},"k":{"ha":694,"x_min":174,"x_max":694,"o":"m 174 938 l 347 939 l 347 590 l 347 417 l 521 417 l 521 590 l 694 590 l 694 417 l 521 417 l 521 243 l 694 243 l 694 69 l 694 -104 l 521 -104 l 521 69 l 521 243 l 347 243 l 347 69 l 347 -104 l 174 -104 l 174 69 l 174 243 l 174 417 l 174 590 l 174 764 l 174 938 z "},"l":{"ha":694,"x_min":347,"x_max":522,"o":"m 347 938 l 522 939 l 521 590 l 521 417 l 521 243 l 521 69 l 521 -104 l 347 -104 l 347 69 l 347 243 l 347 417 l 347 590 l 347 764 l 347 938 z "},"m":{"ha":694,"x_min":174,"x_max":694,"o":"m 174 764 l 347 764 l 347 590 l 521 590 l 521 764 l 694 764 l 694 590 l 694 417 l 694 243 l 694 69 l 694 -104 l 521 -104 l 521 69 l 521 243 l 521 417 l 347 417 l 347 243 l 347 69 l 347 -104 l 174 -104 l 174 69 l 174 243 l 174 417 l 174 590 l 174 764 z "},"n":{"ha":694,"x_min":174,"x_max":694,"o":"m 174 764 l 521 764 l 521 590 l 694 590 l 694 417 l 694 243 l 694 69 l 694 -104 l 521 -104 l 521 69 l 521 243 l 521 417 l 521 590 l 347 590 l 347 417 l 347 243 l 347 69 l 347 -104 l 174 -104 l 174 69 l 174 243 l 174 417 l 174 590 l 174 764 z "},"o":{"ha":694,"x_min":174,"x_max":694,"o":"m 347 764 l 522 764 l 521 590 l 347 590 l 347 764 m 174 590 l 347 590 l 347 243 l 347 69 l 174 69 l 174 243 l 174 417 l 174 590 m 521 590 l 694 589 l 694 243 l 694 69 l 521 69 l 521 243 l 521 417 l 521 590 m 347 69 l 521 69 l 521 -104 l 347 -104 l 347 69 z "},"p":{"ha":694,"x_min":174,"x_max":694,"o":"m 347 589 m 347 244 l 347 589 l 347 244 m 174 764 l 521 764 l 522 589 l 347 589 l 347 244 l 521 243 l 522 589 l 694 590 l 694 417 l 694 243 l 521 243 l 521 69 l 347 69 l 347 -104 l 347 -278 l 174 -278 l 174 -104 l 174 69 l 174 243 l 174 417 l 174 590 l 174 764 z "},"q":{"ha":694,"x_min":174,"x_max":694,"o":"m 347 764 l 694 764 l 694 590 l 694 417 l 694 243 l 694 69 l 694 -104 l 694 -278 l 521 -278 l 521 -104 l 521 69 l 347 69 l 347 243 l 521 243 l 521 417 l 521 590 l 347 590 l 347 764 m 174 590 l 347 590 l 347 243 l 174 243 l 174 417 l 174 590 z "},"r":{"ha":694,"x_min":174,"x_max":694,"o":"m 347 764 l 694 764 l 694 590 l 521 590 l 347 590 l 347 764 m 174 590 l 347 590 l 347 764 l 347 243 l 347 69 l 347 -104 l 174 -104 l 174 69 l 174 243 l 174 417 l 174 590 z "},"s":{"ha":694,"x_min":174,"x_max":694,"o":"m 347 764 l 694 764 l 694 590 l 521 590 l 174 590 l 347 589 l 347 764 m 174 590 l 347 589 l 347 417 l 174 417 l 174 590 m 347 417 l 522 417 l 521 243 l 347 243 l 347 417 m 521 243 l 694 244 l 694 69 l 522 69 l 521 243 m 174 69 l 694 69 l 522 69 l 521 -104 l 347 -104 l 174 -104 l 174 69 z "},"t":{"ha":694,"x_min":174,"x_max":694,"o":"m 347 938 l 521 939 l 521 590 l 694 590 l 694 417 l 521 417 l 521 243 l 521 69 l 521 -104 l 347 -104 l 347 69 l 347 243 l 347 417 l 174 417 l 174 590 l 347 590 l 347 764 l 347 938 z "},"u":{"ha":694,"x_min":174,"x_max":694,"o":"m 174 764 l 347 764 l 347 417 l 347 243 l 347 69 l 521 69 l 521 243 l 521 417 l 521 590 l 521 764 l 694 764 l 694 590 l 694 417 l 694 243 l 694 69 l 694 -104 l 521 -104 l 347 -104 l 174 -104 l 174 69 l 174 243 l 174 417 l 174 590 l 174 764 z "},"v":{"ha":694,"x_min":174,"x_max":694,"o":"m 174 764 l 347 764 l 347 417 l 347 243 l 347 69 l 521 69 l 521 243 l 521 417 l 521 590 l 521 764 l 694 764 l 694 590 l 694 417 l 694 243 l 694 69 l 521 69 l 521 -104 l 347 -104 l 347 69 l 174 69 l 174 243 l 174 417 l 174 590 l 174 764 z "},"w":{"ha":694,"x_min":174,"x_max":694,"o":"m 174 764 l 347 764 l 347 417 l 347 243 l 521 243 l 521 417 l 521 590 l 521 764 l 694 764 l 694 590 l 694 417 l 694 243 l 694 69 l 694 -104 l 521 -104 l 521 69 l 347 69 l 347 -104 l 174 -104 l 174 69 l 174 243 l 174 417 l 174 590 l 174 764 z "},"x":{"ha":694,"x_min":174,"x_max":694,"o":"m 174 764 l 347 764 l 347 417 l 521 417 l 521 590 l 521 764 l 694 764 l 694 590 l 694 417 l 521 417 l 521 243 l 694 243 l 694 69 l 694 -104 l 521 -104 l 521 69 l 521 243 l 347 243 l 347 69 l 347 -104 l 174 -104 l 174 69 l 174 243 l 347 243 l 347 417 l 174 417 l 174 590 l 174 764 z "},"y":{"ha":694,"x_min":174,"x_max":694,"o":"m 174 764 l 347 764 l 347 417 l 347 243 l 521 243 l 521 417 l 521 590 l 521 764 l 694 764 l 694 590 l 694 417 l 694 243 l 694 69 l 694 -104 l 521 -104 l 521 -278 l 347 -278 l 174 -278 l 174 -104 l 347 -104 l 521 -104 l 521 69 l 347 69 l 347 243 l 174 243 l 174 417 l 174 590 l 174 764 z "},"z":{"ha":694,"x_min":174,"x_max":694,"o":"m 174 764 l 521 764 l 694 764 l 694 590 l 694 417 l 521 417 l 521 243 l 347 243 l 347 69 l 521 69 l 694 69 l 694 -104 l 521 -104 l 347 -104 l 174 -104 l 174 69 l 174 243 l 347 243 l 347 417 l 521 417 l 521 590 l 347 590 l 174 590 l 174 764 z "},"{":{"ha":694,"x_min":174,"x_max":694,"o":"m 521 1111 l 694 1111 l 694 938 l 521 938 l 521 1111 m 347 938 l 521 938 l 521 590 l 347 590 l 347 764 l 347 938 m 174 590 l 347 590 l 347 417 l 174 417 l 174 590 m 347 417 l 521 417 l 521 69 l 347 69 l 347 243 l 347 417 m 521 69 l 694 69 l 694 -104 l 521 -104 l 521 69 z "},"|":{"ha":694,"x_min":347,"x_max":521,"o":"m 347 417 l 521 417 l 521 69 l 521 -104 l 347 -104 l 347 69 l 347 243 l 347 417 m 347 1111 l 521 1111 l 521 764 l 521 590 l 347 590 l 347 764 l 347 938 l 347 1111 z "},"}":{"ha":694,"x_min":174,"x_max":694,"o":"m 174 1111 l 347 1111 l 347 938 l 521 938 l 521 764 l 521 590 l 694 590 l 694 417 l 521 417 l 521 243 l 521 69 l 347 69 l 347 -104 l 174 -104 l 174 69 l 347 69 l 347 243 l 347 417 l 521 417 l 521 590 l 347 590 l 347 764 l 347 938 l 174 938 l 174 1111 z "},"~":{"ha":694,"x_min":174,"x_max":694,"o":"m 174 764 l 521 764 l 521 590 l 694 590 l 694 417 l 521 417 l 347 417 l 347 590 l 174 590 l 174 764 z "},"":{"ha":694,"x_min":0,"x_max":0,"o":""},"":{"ha":694,"x_min":0,"x_max":0,"o":""},"":{"ha":694,"x_min":0,"x_max":0,"o":""},"":{"ha":694,"x_min":0,"x_max":0,"o":""},"":{"ha":694,"x_min":0,"x_max":0,"o":""},"":{"ha":694,"x_min":0,"x_max":0,"o":""},"":{"ha":694,"x_min":0,"x_max":0,"o":""},"":{"ha":694,"x_min":0,"x_max":0,"o":""},"":{"ha":694,"x_min":0,"x_max":0,"o":""},"":{"ha":694,"x_min":0,"x_max":0,"o":""},"":{"ha":694,"x_min":0,"x_max":0,"o":""},"":{"ha":694,"x_min":0,"x_max":0,"o":""},"":{"ha":694,"x_min":0,"x_max":0,"o":""},"":{"ha":694,"x_min":0,"x_max":0,"o":""},"":{"ha":694,"x_min":0,"x_max":0,"o":""},"":{"ha":694,"x_min":0,"x_max":0,"o":""},"":{"ha":694,"x_min":0,"x_max":0,"o":""},"":{"ha":694,"x_min":0,"x_max":0,"o":""},"":{"ha":694,"x_min":0,"x_max":0,"o":""},"":{"ha":694,"x_min":0,"x_max":0,"o":""},"":{"ha":694,"x_min":0,"x_max":0,"o":""},"":{"ha":694,"x_min":0,"x_max":0,"o":""},"":{"ha":694,"x_min":0,"x_max":0,"o":""},"":{"ha":694,"x_min":0,"x_max":0,"o":""},"":{"ha":694,"x_min":0,"x_max":0,"o":""},"":{"ha":694,"x_min":0,"x_max":0,"o":""},"":{"ha":694,"x_min":0,"x_max":0,"o":""},"":{"ha":694,"x_min":0,"x_max":0,"o":""},"":{"ha":694,"x_min":0,"x_max":0,"o":""},"":{"ha":694,"x_min":0,"x_max":0,"o":""},"":{"ha":694,"x_min":0,"x_max":0,"o":""},"":{"ha":694,"x_min":0,"x_max":0,"o":""},"":{"ha":694,"x_min":0,"x_max":0,"o":""}," ":{"ha":694,"x_min":0,"x_max":0,"o":""},"¡":{"ha":694,"x_min":347,"x_max":522,"o":"m 347 590 l 521 589 l 521 243 l 521 69 l 521 -104 l 347 -104 l 347 69 l 347 243 l 347 417 l 347 590 m 347 938 l 522 939 l 521 764 l 347 764 l 347 938 z "},"¢":{"ha":694,"x_min":174,"x_max":694,"o":"m 174 590 l 347 590 l 347 417 l 347 243 l 347 69 l 174 69 l 174 243 l 174 417 l 174 590 m 347 69 l 694 69 l 694 -104 l 521 -104 l 521 -278 l 347 -278 l 347 -104 l 347 69 m 347 938 l 521 938 l 521 764 l 694 764 l 694 590 l 521 590 l 347 590 l 347 764 l 347 938 z "},"£":{"ha":694,"x_min":0,"x_max":694,"o":"m 521 243 l 694 244 l 694 69 l 521 69 l 521 243 m 347 938 l 694 938 l 694 764 l 521 764 l 347 764 l 347 938 m 174 764 l 347 764 l 347 590 l 521 590 l 521 417 l 347 417 l 347 243 l 347 69 l 521 69 l 521 -104 l 347 -104 l 174 -104 l 0 -104 l 0 69 l 174 69 l 174 243 l 0 243 l 0 417 l 174 417 l 174 590 l 174 764 z "},"¤":{"ha":694,"x_min":174,"x_max":694,"o":"m 347 592 l 347 414 l 522 414 l 522 592 l 347 592 m 174 764 l 521 764 l 694 764 l 694 590 l 694 417 l 694 243 l 521 243 l 347 243 l 174 243 l 174 417 l 174 590 l 174 764 z "},"¥":{"ha":694,"x_min":174,"x_max":694,"o":"m 174 938 l 347 939 l 347 764 l 521 764 l 521 938 l 694 938 l 694 764 l 521 764 l 521 590 l 694 590 l 694 417 l 521 417 l 521 243 l 694 243 l 694 69 l 521 69 l 521 -104 l 347 -104 l 347 69 l 174 69 l 174 243 l 347 243 l 347 417 l 174 417 l 174 590 l 347 590 l 347 764 l 174 764 l 174 938 z "},"¦":{"ha":694,"x_min":347,"x_max":521,"o":"m 347 417 l 521 417 l 521 243 l 521 69 l 521 -104 l 347 -104 l 347 69 l 347 243 l 347 417 m 347 1111 l 521 1111 l 521 938 l 521 764 l 521 590 l 347 590 l 347 764 l 347 938 l 347 1111 z "},"§":{"ha":694,"x_min":174,"x_max":694,"o":"m 347 1111 l 694 1111 l 694 938 l 521 938 l 347 938 l 347 1111 m 174 938 l 347 938 l 347 764 l 174 764 l 174 938 m 347 764 l 521 764 l 521 590 l 347 590 l 347 764 m 174 590 l 347 590 l 347 417 l 174 417 l 174 590 m 521 590 l 694 590 l 694 417 l 521 417 l 521 590 m 347 417 l 521 417 l 521 243 l 347 243 l 347 417 m 521 243 l 694 243 l 694 69 l 521 69 l 521 243 m 174 69 l 521 69 l 521 -104 l 347 -104 l 174 -104 l 174 69 z "},"¨":{"ha":694,"x_min":174,"x_max":694,"o":"m 521 1111 l 694 1113 l 694 938 l 521 938 l 521 1111 m 174 1111 l 346 1113 l 347 938 l 174 938 l 174 1111 z "},"©":{"ha":694,"x_min":0,"x_max":694,"o":"m 174 1111 l 521 1111 l 521 938 l 347 938 l 174 938 l 174 1111 m 0 938 l 174 938 l 174 590 l 347 590 l 347 417 l 174 417 l 174 243 l 174 69 l 0 69 l 0 243 l 0 417 l 0 590 l 0 764 l 0 938 m 521 938 l 694 938 l 694 590 l 694 417 l 694 243 l 694 69 l 521 69 l 521 243 l 347 243 l 347 417 l 521 417 l 521 590 l 347 590 l 347 764 l 521 764 l 521 938 m 174 69 l 521 69 l 521 -104 l 347 -104 l 174 -104 l 174 69 z "},"ª":{"ha":694,"x_min":174,"x_max":694,"o":"m 174 417 l 521 417 l 694 417 l 694 243 l 521 243 l 347 243 l 174 243 l 174 417 m 174 1111 l 521 1111 l 521 938 l 694 938 l 694 764 l 694 590 l 521 590 l 521 764 l 347 764 l 347 590 l 174 590 l 174 764 l 347 764 l 347 938 l 174 938 l 174 1111 z "},"«":{"ha":694,"x_min":0,"x_max":694,"o":"m 174 590 l 347 589 l 347 417 l 174 417 l 174 590 m 521 590 l 694 589 l 694 417 l 521 417 l 521 590 m 0 417 l 174 417 l 174 243 l 0 243 l 0 417 m 347 417 l 521 417 l 521 243 l 347 243 l 347 417 m 174 243 l 347 243 l 347 69 l 174 69 l 174 243 m 521 243 l 694 244 l 694 69 l 521 69 l 521 243 z "},"¬":{"ha":694,"x_min":174,"x_max":694,"o":"m 174 764 l 521 764 l 694 764 l 694 590 l 694 417 l 521 417 l 521 590 l 347 590 l 174 590 l 174 764 z "},"­":{"ha":694,"x_min":174,"x_max":694,"o":"m 174 590 l 521 590 l 694 590 l 694 417 l 521 417 l 347 417 l 174 417 l 174 590 z "},"®":{"ha":694,"x_min":0,"x_max":694,"o":"m 174 1111 l 521 1111 l 521 938 l 347 938 l 174 938 l 174 1111 m 0 938 l 174 764 l 174 590 l 347 590 l 347 417 l 347 243 l 174 243 l 174 69 l 0 69 l 0 243 l 0 417 l 0 590 l 0 764 l 0 938 m 521 938 l 694 764 l 694 590 l 694 417 l 694 243 l 694 69 l 521 69 l 521 243 l 521 417 l 521 590 l 347 590 l 347 764 l 521 764 l 521 938 m 174 69 l 521 69 l 521 -104 l 347 -104 l 174 -104 l 174 69 z "},"¯":{"ha":694,"x_min":174,"x_max":694,"o":"m 174 1111 l 521 1111 l 694 1111 l 694 938 l 521 938 l 347 938 l 174 938 l 174 1111 z "},"°":{"ha":694,"x_min":174,"x_max":694,"o":"m 347 1111 l 521 1113 l 521 938 l 347 938 l 347 1111 m 174 938 l 347 938 l 347 764 l 174 764 l 174 938 m 521 938 l 694 938 l 694 764 l 521 764 l 521 938 m 347 764 l 521 764 l 521 590 l 347 590 l 347 764 z "},"±":{"ha":694,"x_min":174,"x_max":694,"o":"m 174 243 l 521 243 l 694 243 l 694 69 l 521 69 l 347 69 l 174 69 l 174 243 m 347 938 l 521 938 l 521 764 l 694 764 l 694 590 l 521 590 l 521 417 l 347 417 l 347 590 l 174 590 l 174 764 l 347 764 l 347 938 z "},"²":{"ha":694,"x_min":174,"x_max":694,"o":"m 174 938 l 521 938 l 521 764 l 694 764 l 694 590 l 521 590 l 521 417 l 694 417 l 694 243 l 521 243 l 347 243 l 174 243 l 174 417 l 347 417 l 347 590 l 521 590 l 521 764 l 347 764 l 174 764 l 174 938 z "},"³":{"ha":694,"x_min":174,"x_max":694,"o":"m 174 938 l 521 938 l 694 938 l 694 764 l 694 590 l 694 417 l 521 417 l 521 243 l 347 243 l 174 243 l 174 417 l 347 417 l 521 417 l 521 590 l 347 590 l 347 764 l 174 764 l 174 938 z "},"´":{"ha":694,"x_min":174,"x_max":521,"o":"m 347 938 l 521 938 l 521 764 l 347 764 l 347 938 m 174 764 l 347 764 l 347 590 l 174 590 l 174 764 z "},"µ":{"ha":694,"x_min":174,"x_max":868,"o":"m 174 764 l 347 764 l 347 417 l 347 243 l 521 243 l 521 417 l 521 590 l 521 764 l 694 764 l 694 590 l 694 417 l 694 243 l 868 243 l 868 69 l 694 69 l 694 243 l 521 243 l 521 69 l 347 69 l 347 -104 l 174 -104 l 174 69 l 174 243 l 174 417 l 174 590 l 174 764 z "},"¶":{"ha":694,"x_min":0,"x_max":694,"o":"m 174 938 l 521 938 l 694 938 l 694 764 l 521 764 l 521 590 l 521 417 l 521 243 l 521 69 l 694 69 l 694 -104 l 521 -104 l 347 -104 l 174 -104 l 0 -104 l 0 69 l 174 69 l 174 243 l 174 417 l 347 417 l 347 590 l 347 764 l 174 764 l 174 938 m 0 764 l 174 764 l 174 417 l 0 417 l 0 590 l 0 764 z "},"·":{"ha":694,"x_min":347,"x_max":521,"o":"m 347 417 l 521 417 l 521 243 l 347 243 l 347 417 z "},"¸":{"ha":694,"x_min":347,"x_max":521,"o":"m 347 69 l 521 69 l 521 -278 l 347 -278 l 347 -104 l 347 69 z "},"¹":{"ha":694,"x_min":174,"x_max":694,"o":"m 347 938 l 521 938 l 521 590 l 521 417 l 694 417 l 694 243 l 521 243 l 347 243 l 174 243 l 174 417 l 347 417 l 347 590 l 174 590 l 174 764 l 347 764 l 347 938 z "},"º":{"ha":1389,"x_min":174,"x_max":696,"o":"m 347 1111 l 521 1113 l 521 938 l 347 938 l 347 1111 m 174 938 l 347 938 l 347 764 l 174 764 l 174 938 m 521 938 l 696 938 l 694 764 l 521 764 l 521 938 m 347 764 l 521 764 l 521 590 l 347 590 l 347 764 m 174 417 l 521 417 l 694 417 l 694 243 l 521 243 l 347 243 l 174 243 l 174 417 z "},"»":{"ha":694,"x_min":0,"x_max":694,"o":"m 0 590 l 172 589 l 174 417 l 347 417 l 347 590 l 521 590 l 521 417 l 694 417 l 694 243 l 521 243 l 521 69 l 347 69 l 347 243 l 174 243 l 174 69 l 0 69 l 0 243 l 174 243 l 174 417 l 0 417 l 0 590 z "},"¼":{"ha":694,"x_min":174,"x_max":694,"o":"m 174 1111 l 346 1113 l 347 764 l 521 764 l 521 938 l 694 938 l 694 764 l 521 764 l 521 592 l 347 590 l 347 417 l 521 417 l 521 592 l 694 590 l 694 417 l 694 243 l 694 69 l 521 69 l 521 243 l 347 243 l 347 417 l 174 417 l 174 590 l 347 590 l 347 764 l 174 764 l 174 938 l 174 1111 z "},"½":{"ha":694,"x_min":174,"x_max":694,"o":"m 174 1111 l 346 1113 l 347 764 l 521 764 l 521 938 l 694 938 l 694 764 l 521 764 l 521 590 l 694 590 l 694 417 l 694 243 l 694 69 l 521 69 l 347 69 l 347 243 l 347 417 l 174 417 l 174 590 l 347 590 l 347 764 l 174 764 l 174 938 l 174 1111 z "},"¾":{"ha":694,"x_min":174,"x_max":694,"o":"m 174 1111 l 521 1111 l 521 938 l 694 938 l 694 764 l 521 764 l 521 590 l 694 590 l 694 417 l 694 243 l 694 69 l 521 69 l 521 243 l 347 243 l 346 417 l 521 417 l 521 590 l 346 592 l 346 417 l 174 417 l 174 590 l 174 764 l 174 938 l 174 1111 z "},"¿":{"ha":694,"x_min":174,"x_max":694,"o":"m 347 938 l 522 939 l 521 764 l 347 764 l 347 938 m 347 590 l 522 589 l 521 417 l 347 417 l 347 590 m 174 417 l 347 417 l 347 243 l 347 69 l 174 69 l 174 243 l 174 417 m 521 243 l 694 244 l 694 69 l 521 69 l 521 243 m 347 69 l 521 69 l 521 -104 l 347 -104 l 347 69 z "},"À":{"ha":1389,"x_min":174,"x_max":694,"o":"m 174 1111 l 347 1111 l 347 938 l 521 938 l 521 764 l 694 764 l 694 590 l 694 417 l 694 243 l 694 69 l 694 -104 l 521 -104 l 521 69 l 521 243 l 347 243 l 347 69 l 347 -104 l 174 -104 l 174 69 l 174 243 l 174 417 l 174 590 l 174 764 l 347 764 l 347 417 l 521 417 l 521 764 l 347 764 l 347 938 l 174 938 l 174 1111 z "},"Á":{"ha":1389,"x_min":174,"x_max":694,"o":"m 521 1111 l 694 1111 l 694 938 l 521 938 l 521 1111 m 347 938 l 521 938 l 521 764 l 347 764 l 347 938 m 174 764 l 347 764 l 347 417 l 521 417 l 521 590 l 521 764 l 694 764 l 694 590 l 694 417 l 694 243 l 694 69 l 694 -104 l 521 -104 l 521 69 l 521 243 l 347 243 l 347 69 l 347 -104 l 174 -104 l 174 69 l 174 243 l 174 417 l 174 590 l 174 764 z "},"Â":{"ha":694,"x_min":174,"x_max":694,"o":"m 347 1111 l 521 1111 l 521 938 l 347 938 l 347 1111 m 174 938 l 347 938 l 347 764 l 174 764 l 174 938 m 521 938 l 694 938 l 694 764 l 521 764 l 521 938 m 347 764 l 521 764 l 521 590 l 347 590 l 347 764 m 174 590 l 347 590 l 347 417 l 521 417 l 521 590 l 694 590 l 694 417 l 694 243 l 694 69 l 694 -104 l 521 -104 l 521 69 l 521 243 l 347 243 l 347 69 l 347 -104 l 174 -104 l 174 69 l 174 243 l 174 417 l 174 590 z "},"Ã":{"ha":694,"x_min":174,"x_max":694,"o":"m 347 1111 l 694 1111 l 694 938 l 521 938 l 521 764 l 344 764 l 344 419 l 521 419 l 521 764 l 694 764 l 694 590 l 694 417 l 694 243 l 694 69 l 694 -104 l 521 -104 l 521 69 l 521 243 l 347 243 l 347 69 l 347 -104 l 174 -104 l 174 69 l 174 243 l 174 417 l 174 590 l 174 764 l 174 938 l 347 938 l 347 1111 z "},"Ä":{"ha":1389,"x_min":174,"x_max":694,"o":"m 174 1111 l 347 1111 l 347 938 l 521 938 l 521 1111 l 694 1111 l 694 938 l 521 938 l 521 764 l 694 764 l 694 590 l 694 417 l 694 243 l 694 69 l 694 -104 l 521 -104 l 521 69 l 521 243 l 347 243 l 347 69 l 347 -104 l 174 -104 l 174 69 l 174 243 l 174 417 l 174 590 l 174 764 l 347 764 l 347 417 l 521 417 l 521 764 l 347 764 l 347 938 l 174 938 l 174 1111 z "},"Å":{"ha":1389,"x_min":174,"x_max":694,"o":"m 347 1111 l 521 1111 l 521 938 l 347 938 l 347 1111 m 174 938 l 347 938 l 347 764 l 174 764 l 174 938 m 521 938 l 694 938 l 694 764 l 521 764 l 521 938 m 347 764 l 521 764 l 521 590 l 347 590 l 347 764 m 174 590 l 347 590 l 347 417 l 521 417 l 521 590 l 694 590 l 694 417 l 694 243 l 694 69 l 694 -104 l 521 -104 l 521 69 l 521 243 l 347 243 l 347 69 l 347 -104 l 174 -104 l 174 69 l 174 243 l 174 417 l 174 590 z "},"Æ":{"ha":694,"x_min":0,"x_max":694,"o":"m 174 938 l 521 938 l 694 938 l 694 764 l 521 764 l 521 590 l 694 590 l 694 417 l 521 417 l 521 243 l 521 69 l 694 69 l 694 -104 l 521 -104 l 347 -104 l 347 69 l 347 243 l 174 243 l 174 69 l 174 -104 l 0 -104 l 0 69 l 0 243 l 0 417 l 0 590 l 0 764 l 174 764 l 174 590 l 174 417 l 347 417 l 347 590 l 347 764 l 174 764 l 174 938 z "},"Ç":{"ha":694,"x_min":174,"x_max":694,"o":"m 347 938 l 521 938 l 521 764 l 347 764 l 347 938 m 174 764 l 347 764 l 347 417 l 347 243 l 347 69 l 174 69 l 174 243 l 174 417 l 174 590 l 174 764 m 521 764 l 694 764 l 694 590 l 521 590 l 521 764 m 521 417 l 694 417 l 694 69 l 521 69 l 521 243 l 521 417 m 347 69 l 521 69 l 521 -278 l 347 -278 l 347 -104 l 347 69 z "},"È":{"ha":694,"x_min":174,"x_max":694,"o":"m 174 1111 l 347 1111 l 347 938 l 521 938 l 521 764 l 694 764 l 694 590 l 521 590 l 347 590 l 347 417 l 521 417 l 694 417 l 694 243 l 521 243 l 347 243 l 347 69 l 521 69 l 694 69 l 694 -104 l 521 -104 l 347 -104 l 174 -104 l 174 69 l 174 243 l 174 417 l 174 590 l 174 764 l 347 764 l 347 938 l 174 938 l 174 1111 z "},"É":{"ha":694,"x_min":174,"x_max":694,"o":"m 521 1111 l 694 1111 l 694 938 l 521 938 l 521 1111 m 347 938 l 521 938 l 521 764 l 694 764 l 694 590 l 521 590 l 347 590 l 347 417 l 521 417 l 694 417 l 694 243 l 521 243 l 347 243 l 347 69 l 521 69 l 694 69 l 694 -104 l 521 -104 l 347 -104 l 174 -104 l 174 69 l 174 243 l 174 417 l 174 590 l 174 764 l 347 764 l 347 938 z "},"Ê":{"ha":694,"x_min":174,"x_max":694,"o":"m 347 1111 l 521 1111 l 521 938 l 347 938 l 347 1111 m 174 938 l 347 938 l 347 764 l 521 764 l 521 938 l 694 938 l 694 764 l 694 590 l 521 590 l 347 590 l 347 417 l 521 417 l 694 417 l 694 243 l 521 243 l 347 243 l 347 69 l 521 69 l 694 69 l 694 -104 l 521 -104 l 347 -104 l 174 -104 l 174 69 l 174 243 l 174 417 l 174 590 l 174 764 l 174 938 z "},"Ë":{"ha":694,"x_min":174,"x_max":694,"o":"m 521 1111 l 694 1111 l 694 938 l 521 938 l 521 1111 m 174 764 l 521 764 l 694 764 l 694 590 l 521 590 l 347 590 l 347 417 l 521 417 l 694 417 l 694 243 l 521 243 l 347 243 l 347 69 l 521 69 l 694 69 l 694 -104 l 521 -104 l 347 -104 l 174 -104 l 174 69 l 174 243 l 174 417 l 174 590 l 174 764 m 174 1111 l 347 1111 l 347 938 l 174 938 l 174 1111 z "},"Ì":{"ha":694,"x_min":174,"x_max":694,"o":"m 174 1111 l 347 1111 l 347 938 l 521 938 l 521 764 l 694 764 l 694 590 l 521 590 l 521 417 l 521 243 l 521 69 l 694 69 l 694 -104 l 521 -104 l 347 -104 l 174 -104 l 174 69 l 347 69 l 347 243 l 347 417 l 347 590 l 174 590 l 174 764 l 347 764 l 347 938 l 174 938 l 174 1111 z "},"Í":{"ha":694,"x_min":174,"x_max":694,"o":"m 521 1111 l 694 1111 l 694 938 l 521 938 l 521 1111 m 347 938 l 521 938 l 521 764 l 694 764 l 694 590 l 521 590 l 521 417 l 521 243 l 521 69 l 694 69 l 694 -104 l 521 -104 l 347 -104 l 174 -104 l 174 69 l 347 69 l 347 243 l 347 417 l 347 590 l 174 590 l 174 764 l 347 764 l 347 938 z "},"Î":{"ha":694,"x_min":174,"x_max":694,"o":"m 347 1111 l 521 1111 l 521 938 l 347 938 l 347 1111 m 174 938 l 347 938 l 347 764 l 521 764 l 521 938 l 694 938 l 694 764 l 694 590 l 521 590 l 521 417 l 521 243 l 521 69 l 694 69 l 694 -104 l 521 -104 l 347 -104 l 174 -104 l 174 69 l 347 69 l 347 243 l 347 417 l 347 590 l 174 590 l 174 764 l 174 938 z "},"Ï":{"ha":694,"x_min":174,"x_max":694,"o":"m 521 1111 l 694 1111 l 694 938 l 521 938 l 521 1111 m 174 764 l 521 764 l 694 764 l 694 590 l 521 590 l 521 417 l 521 243 l 521 69 l 694 69 l 694 -104 l 521 -104 l 347 -104 l 174 -104 l 174 69 l 347 69 l 347 243 l 347 417 l 347 590 l 174 590 l 174 764 m 174 1111 l 347 1111 l 347 938 l 174 938 l 174 1111 z "},"Ð":{"ha":694,"x_min":0,"x_max":694,"o":"m 174 938 l 521 938 l 522 764 l 347 764 l 347 592 l 522 592 l 522 764 l 694 764 l 694 590 l 694 417 l 694 243 l 694 69 l 522 69 l 522 417 l 344 417 l 344 72 l 522 72 l 521 -104 l 347 -104 l 174 -104 l 174 69 l 174 243 l 0 243 l 0 417 l 174 417 l 174 590 l 174 764 l 174 938 z "},"Ñ":{"ha":694,"x_min":174,"x_max":694,"o":"m 174 1111 l 521 1111 l 521 938 l 694 938 l 694 764 l 694 590 l 694 417 l 694 243 l 694 69 l 521 69 l 521 243 l 347 243 l 347 69 l 347 -104 l 174 -104 l 174 69 l 174 243 l 174 417 l 174 590 l 174 764 l 347 764 l 347 590 l 525 590 l 525 764 l 347 764 l 347 938 l 174 938 l 174 1111 z "},"Ò":{"ha":694,"x_min":174,"x_max":694,"o":"m 174 1111 l 347 1111 l 347 938 l 521 938 l 521 590 l 694 590 l 694 69 l 521 69 l 521 -104 l 347 -104 l 347 69 l 174 69 l 174 590 l 347 590 l 347 69 l 521 69 l 521 590 l 347 590 l 347 938 l 174 938 l 174 1111 z "},"Ó":{"ha":694,"x_min":174,"x_max":694,"o":"m 521 1111 l 694 1111 l 694 938 l 521 938 l 521 1111 m 347 938 l 521 938 l 521 590 l 347 590 l 347 764 l 347 938 m 174 590 l 347 590 l 347 243 l 347 69 l 174 69 l 174 243 l 174 417 l 174 590 m 521 590 l 694 590 l 694 243 l 694 69 l 521 69 l 521 243 l 521 417 l 521 590 m 347 69 l 521 69 l 521 -104 l 347 -104 l 347 69 z "},"Ô":{"ha":694,"x_min":174,"x_max":694,"o":"m 347 1111 l 521 1111 l 521 938 l 347 938 l 347 1111 m 174 938 l 347 938 l 347 764 l 174 764 l 174 938 m 521 938 l 694 938 l 694 764 l 521 764 l 521 938 m 347 764 l 521 764 l 521 590 l 347 590 l 347 764 m 174 590 l 347 590 l 347 243 l 347 69 l 174 69 l 174 243 l 174 417 l 174 590 m 521 590 l 694 590 l 694 243 l 694 69 l 521 69 l 521 243 l 521 417 l 521 590 m 347 69 l 521 69 l 521 -104 l 347 -104 l 347 69 z "},"Õ":{"ha":694,"x_min":174,"x_max":694,"o":"m 174 1111 l 521 1111 l 521 938 l 694 938 l 694 764 l 521 764 l 521 590 l 694 590 l 694 417 l 694 243 l 694 69 l 521 69 l 521 590 l 347 590 l 347 69 l 521 69 l 521 -104 l 347 -104 l 347 69 l 174 69 l 174 243 l 174 417 l 174 590 l 347 590 l 347 764 l 347 938 l 174 938 l 174 1111 z "},"Ö":{"ha":694,"x_min":174,"x_max":694,"o":"m 521 1111 l 694 1111 l 694 938 l 521 938 l 521 1111 m 347 764 l 521 764 l 521 590 l 347 590 l 347 764 m 174 590 l 347 590 l 347 243 l 347 69 l 174 69 l 174 243 l 174 417 l 174 590 m 521 590 l 694 590 l 694 243 l 694 69 l 521 69 l 521 243 l 521 417 l 521 590 m 347 69 l 521 69 l 521 -104 l 347 -104 l 347 69 m 174 1111 l 347 1111 l 347 938 l 174 938 l 174 1111 z "},"×":{"ha":694,"x_min":174,"x_max":694,"o":"m 174 590 l 347 589 l 347 417 l 521 417 l 521 590 l 694 590 l 694 417 l 521 417 l 521 243 l 694 243 l 694 69 l 521 69 l 521 243 l 347 243 l 347 69 l 174 69 l 174 243 l 347 243 l 347 417 l 174 417 l 174 590 z "},"Ø":{"ha":694,"x_min":174,"x_max":694,"o":"m 521 1111 l 694 1113 l 694 938 l 521 938 l 521 1111 m 347 938 l 521 938 l 521 764 l 347 764 l 347 938 m 174 764 l 347 764 l 347 590 l 521 590 l 521 764 l 694 764 l 694 590 l 694 417 l 694 243 l 694 69 l 525 71 l 525 246 l 350 246 l 350 71 l 521 71 l 521 -104 l 347 -104 l 347 -278 l 174 -278 l 174 -104 l 347 -104 l 347 69 l 174 69 l 174 243 l 174 417 l 174 590 l 174 764 z "},"Ù":{"ha":1389,"x_min":174,"x_max":694,"o":"m 174 1111 l 347 1111 l 347 938 l 521 938 l 521 764 l 694 764 l 694 590 l 694 417 l 694 243 l 694 69 l 694 -104 l 521 -104 l 347 -104 l 174 -104 l 174 69 l 174 243 l 174 417 l 174 590 l 174 764 l 347 764 l 347 69 l 521 69 l 521 764 l 347 764 l 347 938 l 174 938 l 174 1111 z "},"Ú":{"ha":1389,"x_min":174,"x_max":694,"o":"m 521 1111 l 694 1111 l 694 938 l 521 938 l 521 1111 m 347 938 l 521 938 l 521 764 l 347 764 l 347 938 m 174 764 l 347 764 l 347 417 l 347 243 l 347 69 l 521 69 l 521 243 l 521 417 l 521 590 l 521 764 l 694 764 l 694 590 l 694 417 l 694 243 l 694 69 l 694 -104 l 521 -104 l 347 -104 l 174 -104 l 174 69 l 174 243 l 174 417 l 174 590 l 174 764 z "},"Û":{"ha":1389,"x_min":174,"x_max":694,"o":"m 347 1111 l 521 1111 l 521 938 l 347 938 l 347 1111 m 174 938 l 347 938 l 347 764 l 174 764 l 174 938 m 521 938 l 694 938 l 694 764 l 521 764 l 521 938 m 174 590 l 347 590 l 347 243 l 347 69 l 521 69 l 521 243 l 521 417 l 521 590 l 694 590 l 694 417 l 694 243 l 694 69 l 694 -104 l 521 -104 l 347 -104 l 174 -104 l 174 69 l 174 243 l 174 417 l 174 590 z "},"Ü":{"ha":694,"x_min":174,"x_max":694,"o":"m 521 1111 l 694 1111 l 694 938 l 521 938 l 521 1111 m 174 764 l 347 764 l 347 417 l 347 243 l 347 69 l 521 69 l 521 243 l 521 417 l 521 590 l 521 764 l 694 764 l 694 590 l 694 417 l 694 243 l 694 69 l 694 -104 l 521 -104 l 347 -104 l 174 -104 l 174 69 l 174 243 l 174 417 l 174 590 l 174 764 m 174 1111 l 347 1111 l 347 938 l 174 938 l 174 1111 z "},"Ý":{"ha":694,"x_min":174,"x_max":694,"o":"m 521 1111 l 694 1111 l 694 938 l 521 938 l 521 1111 m 347 938 l 521 938 l 521 764 l 347 764 l 347 938 m 174 764 l 347 764 l 347 417 l 174 417 l 174 590 l 174 764 m 521 764 l 694 764 l 694 417 l 521 417 l 521 590 l 521 764 m 347 417 l 521 417 l 521 69 l 521 -104 l 347 -104 l 347 69 l 347 243 l 347 417 z "},"Þ":{"ha":694,"x_min":0,"x_max":694,"o":"m 0 764 l 347 764 l 347 590 l 521 590 l 521 417 l 694 417 l 694 243 l 522 244 l 521 417 l 347 417 l 347 244 l 522 244 l 521 69 l 347 69 l 347 -104 l 174 -104 l 0 -104 l 0 69 l 174 69 l 174 243 l 174 417 l 174 590 l 0 590 l 0 764 z "},"ß":{"ha":694,"x_min":0,"x_max":694,"o":"m 174 938 l 521 938 l 522 764 l 344 764 l 344 589 l 521 590 l 522 764 l 694 764 l 694 590 l 521 590 l 522 417 l 344 417 l 344 69 l 519 69 l 519 417 l 694 417 l 694 243 l 694 69 l 694 -104 l 521 -104 l 347 -104 l 174 -104 l 0 -104 l 0 69 l 174 69 l 174 243 l 174 417 l 174 590 l 174 764 l 174 938 z "},"à":{"ha":694,"x_min":174,"x_max":694,"o":"m 174 1111 l 347 1111 l 347 938 l 521 938 l 521 764 l 521 590 l 694 590 l 694 417 l 694 243 l 694 69 l 694 -104 l 521 -104 l 347 -104 l 347 69 l 174 69 l 174 243 l 347 243 l 347 69 l 521 69 l 521 243 l 347 243 l 347 417 l 521 417 l 521 590 l 347 590 l 174 590 l 174 764 l 347 764 l 347 938 l 174 938 l 174 1111 z "},"á":{"ha":694,"x_min":174,"x_max":694,"o":"m 521 1111 l 694 1111 l 694 938 l 521 938 l 521 1111 m 347 938 l 521 938 l 521 590 l 347 590 l 174 590 l 174 764 l 347 764 l 347 938 m 521 590 l 694 590 l 694 243 l 694 69 l 694 -104 l 521 -104 l 347 -104 l 347 69 l 521 69 l 521 243 l 347 243 l 347 417 l 521 417 l 521 590 m 174 243 l 347 243 l 347 69 l 174 69 l 174 243 z "},"â":{"ha":694,"x_min":174,"x_max":694,"o":"m 347 1111 l 521 1111 l 521 938 l 347 938 l 347 1111 m 174 938 l 347 938 l 347 764 l 521 764 l 521 590 l 347 590 l 174 590 l 174 764 l 174 938 m 521 938 l 694 938 l 694 764 l 521 764 l 521 938 m 521 590 l 694 590 l 694 243 l 694 69 l 694 -104 l 521 -104 l 347 -104 l 347 69 l 521 69 l 521 243 l 347 243 l 347 417 l 521 417 l 521 590 m 174 243 l 347 243 l 347 69 l 174 69 l 174 243 z "},"ã":{"ha":694,"x_min":174,"x_max":694,"o":"m 174 1111 l 521 1111 l 521 938 l 694 938 l 694 764 l 521 764 l 521 590 l 694 590 l 694 417 l 694 243 l 694 69 l 694 -104 l 521 -104 l 347 -104 l 347 69 l 174 69 l 174 243 l 347 243 l 347 69 l 521 69 l 521 243 l 347 243 l 347 417 l 521 417 l 521 590 l 347 590 l 174 590 l 174 764 l 347 764 l 347 938 l 174 938 l 174 1111 z "},"ä":{"ha":694,"x_min":174,"x_max":694,"o":"m 521 1111 l 694 1111 l 694 938 l 521 938 l 521 1111 m 174 764 l 521 764 l 521 590 l 347 590 l 174 590 l 174 764 m 521 590 l 694 590 l 694 243 l 694 69 l 694 -104 l 521 -104 l 347 -104 l 347 69 l 521 69 l 521 243 l 347 243 l 347 417 l 521 417 l 521 590 m 174 243 l 347 243 l 347 69 l 174 69 l 174 243 m 174 1111 l 347 1108 l 347 938 l 174 938 l 174 1111 z "},"å":{"ha":694,"x_min":174,"x_max":694,"o":"m 347 1111 l 521 1111 l 521 938 l 347 938 l 347 1111 m 174 938 l 347 938 l 347 764 l 521 764 l 521 590 l 347 590 l 174 590 l 174 764 l 174 938 m 521 938 l 694 938 l 694 764 l 521 764 l 521 938 m 521 590 l 694 590 l 694 243 l 694 69 l 694 -104 l 521 -104 l 347 -104 l 347 69 l 521 69 l 521 243 l 347 243 l 347 417 l 521 417 l 521 590 m 174 243 l 347 243 l 347 69 l 174 69 l 174 243 z "},"æ":{"ha":694,"x_min":0,"x_max":694,"o":"m 174 764 l 347 764 l 347 590 l 174 590 l 174 764 m 347 590 l 694 590 l 694 417 l 694 243 l 521 243 l 521 417 l 347 417 l 347 590 m 174 417 l 347 417 l 347 243 l 174 243 l 174 417 m 0 243 l 174 243 l 174 69 l 0 69 l 0 243 m 347 243 l 521 243 l 521 69 l 694 69 l 694 -104 l 521 -104 l 347 -104 l 174 -104 l 174 69 l 347 69 l 347 243 z "},"ç":{"ha":694,"x_min":174,"x_max":694,"o":"m 347 764 l 694 764 l 694 590 l 521 590 l 347 590 l 347 764 m 174 590 l 347 590 l 347 243 l 347 69 l 174 69 l 174 243 l 174 417 l 174 590 m 347 69 l 694 69 l 694 -104 l 521 -104 l 521 -278 l 347 -278 l 347 -104 l 347 69 z "},"è":{"ha":694,"x_min":174,"x_max":694,"o":"m 347 1111 l 521 1111 l 521 938 l 347 938 l 347 1111 m 521 938 l 694 938 l 694 764 l 521 764 l 521 938 m 347 764 l 521 764 l 521 590 l 347 590 l 347 764 m 174 590 l 347 590 l 347 417 l 521 417 l 521 590 l 694 590 l 694 417 l 694 243 l 521 243 l 347 243 l 347 69 l 521 69 l 694 69 l 694 -104 l 521 -104 l 347 -104 l 347 69 l 174 69 l 174 243 l 174 417 l 174 590 z "},"é":{"ha":694,"x_min":174,"x_max":694,"o":"m 347 1111 l 521 1111 l 521 938 l 347 938 l 347 1111 m 174 938 l 347 938 l 347 764 l 174 764 l 174 938 m 347 764 l 521 764 l 521 590 l 347 590 l 347 764 m 174 590 l 347 590 l 347 417 l 521 417 l 521 590 l 694 590 l 694 417 l 694 243 l 521 243 l 347 243 l 347 69 l 521 69 l 694 69 l 694 -104 l 521 -104 l 347 -104 l 347 69 l 174 69 l 174 243 l 174 417 l 174 590 z "},"ê":{"ha":694,"x_min":174,"x_max":694,"o":"m 347 1111 l 521 1111 l 521 938 l 347 938 l 347 1111 m 174 938 l 347 938 l 347 764 l 174 764 l 174 938 m 521 938 l 694 938 l 694 764 l 521 764 l 521 938 m 347 764 l 521 764 l 521 590 l 347 590 l 347 764 m 174 590 l 347 590 l 347 417 l 521 417 l 521 590 l 694 590 l 694 417 l 694 243 l 521 243 l 347 243 l 347 69 l 521 69 l 694 69 l 694 -104 l 521 -104 l 347 -104 l 347 69 l 174 69 l 174 243 l 174 417 l 174 590 z "},"ë":{"ha":694,"x_min":174,"x_max":694,"o":"m 521 1111 l 694 1111 l 694 938 l 521 938 l 521 1111 m 347 764 l 521 764 l 521 590 l 347 590 l 347 764 m 174 590 l 347 590 l 347 417 l 521 417 l 521 590 l 694 590 l 694 417 l 694 243 l 521 243 l 347 243 l 347 69 l 521 69 l 694 69 l 694 -104 l 521 -104 l 347 -104 l 347 69 l 174 69 l 174 243 l 174 417 l 174 590 m 174 1111 l 347 1111 l 347 938 l 174 938 l 174 1111 z "},"ì":{"ha":694,"x_min":174,"x_max":694,"o":"m 174 590 l 521 590 l 521 417 l 521 243 l 521 69 l 694 69 l 694 -104 l 521 -104 l 347 -104 l 174 -104 l 174 69 l 347 69 l 347 243 l 347 417 l 174 417 l 174 590 m 174 1111 l 347 1111 l 347 938 l 521 938 l 521 764 l 347 764 l 347 938 l 174 938 l 174 1111 z "},"í":{"ha":694,"x_min":174,"x_max":694,"o":"m 521 1111 l 694 1111 l 694 938 l 521 938 l 521 1111 m 347 938 l 521 938 l 521 764 l 347 764 l 347 938 m 174 590 l 521 590 l 521 417 l 521 243 l 521 69 l 694 69 l 694 -104 l 521 -104 l 347 -104 l 174 -104 l 174 69 l 347 69 l 347 243 l 347 417 l 174 417 l 174 590 z "},"î":{"ha":694,"x_min":174,"x_max":694,"o":"m 347 1111 l 521 1111 l 521 938 l 347 938 l 347 1111 m 174 938 l 347 938 l 347 764 l 174 764 l 174 938 m 521 938 l 694 938 l 694 764 l 521 764 l 521 938 m 174 590 l 521 590 l 521 417 l 521 243 l 521 69 l 694 69 l 694 -104 l 521 -104 l 347 -104 l 174 -104 l 174 69 l 347 69 l 347 243 l 347 417 l 174 417 l 174 590 z "},"ï":{"ha":694,"x_min":174,"x_max":694,"o":"m 521 938 l 694 939 l 694 764 l 521 764 l 521 938 m 174 590 l 521 590 l 521 417 l 521 243 l 521 69 l 694 69 l 694 -104 l 521 -104 l 347 -104 l 174 -104 l 174 69 l 347 69 l 347 243 l 347 417 l 174 417 l 174 590 m 174 938 l 347 939 l 347 764 l 174 764 l 174 938 z "},"ð":{"ha":694,"x_min":174,"x_max":694,"o":"m 347 1111 l 694 1111 l 694 938 l 521 938 l 521 764 l 694 764 l 694 590 l 694 417 l 694 243 l 694 69 l 521 69 l 521 -104 l 347 -104 l 347 69 l 174 69 l 174 243 l 174 417 l 174 590 l 347 590 l 347 69 l 521 69 l 521 590 l 347 590 l 347 764 l 174 764 l 174 938 l 347 938 l 347 1111 z "},"ñ":{"ha":694,"x_min":174,"x_max":694,"o":"m 174 1111 l 521 1111 l 521 938 l 694 938 l 694 764 l 521 764 l 521 590 l 694 590 l 694 417 l 694 243 l 694 69 l 694 -104 l 521 -104 l 521 69 l 521 243 l 521 417 l 521 590 l 347 590 l 347 417 l 347 243 l 347 69 l 347 -104 l 174 -104 l 174 69 l 174 243 l 174 417 l 174 590 l 174 764 l 347 764 l 347 938 l 174 938 l 174 1111 z "},"ò":{"ha":694,"x_min":174,"x_max":694,"o":"m 174 1111 l 347 1111 l 347 938 l 521 938 l 521 764 l 521 590 l 694 590 l 694 417 l 694 243 l 694 69 l 521 69 l 521 590 l 347 590 l 347 69 l 521 69 l 521 -104 l 347 -104 l 347 69 l 174 69 l 174 243 l 174 417 l 174 590 l 347 590 l 347 764 l 347 938 l 174 938 l 174 1111 z "},"ó":{"ha":694,"x_min":174,"x_max":694,"o":"m 521 1111 l 694 1111 l 694 938 l 521 938 l 521 1111 m 347 938 l 521 938 l 521 590 l 347 590 l 347 764 l 347 938 m 174 590 l 347 590 l 347 243 l 347 69 l 174 69 l 174 243 l 174 417 l 174 590 m 521 590 l 694 590 l 694 243 l 694 69 l 521 69 l 521 243 l 521 417 l 521 590 m 347 69 l 521 69 l 521 -104 l 347 -104 l 347 69 z "},"ô":{"ha":694,"x_min":174,"x_max":694,"o":"m 347 1111 l 521 1111 l 521 938 l 347 938 l 347 1111 m 174 938 l 347 938 l 347 764 l 174 764 l 174 938 m 521 938 l 694 938 l 694 764 l 521 764 l 521 938 m 347 764 l 521 764 l 521 590 l 347 590 l 347 764 m 174 590 l 347 590 l 347 243 l 347 69 l 174 69 l 174 243 l 174 417 l 174 590 m 521 590 l 694 590 l 694 243 l 694 69 l 521 69 l 521 243 l 521 417 l 521 590 m 347 69 l 521 69 l 521 -104 l 347 -104 l 347 69 z "},"õ":{"ha":694,"x_min":174,"x_max":694,"o":"m 174 1111 l 521 1111 l 521 938 l 694 938 l 694 764 l 521 764 l 521 590 l 694 590 l 694 417 l 694 243 l 694 69 l 521 69 l 521 590 l 347 590 l 347 69 l 521 69 l 521 -104 l 347 -104 l 347 69 l 174 69 l 174 243 l 174 417 l 174 590 l 347 590 l 347 764 l 347 938 l 174 938 l 174 1111 z "},"ö":{"ha":694,"x_min":174,"x_max":694,"o":"m 521 1111 l 694 1111 l 694 938 l 521 938 l 521 1111 m 347 764 l 521 764 l 521 590 l 347 590 l 347 764 m 174 590 l 347 590 l 347 243 l 347 69 l 174 69 l 174 243 l 174 417 l 174 590 m 521 590 l 694 590 l 694 243 l 694 69 l 521 69 l 521 243 l 521 417 l 521 590 m 347 69 l 521 69 l 521 -104 l 347 -104 l 347 69 m 174 1111 l 347 1111 l 347 938 l 174 938 l 174 1111 z "},"÷":{"ha":694,"x_min":174,"x_max":694,"o":"m 347 243 l 521 243 l 521 69 l 347 69 l 347 243 m 347 938 l 521 938 l 521 764 l 347 764 l 347 938 m 174 590 l 521 590 l 694 590 l 694 417 l 521 417 l 347 417 l 174 417 l 174 590 z "},"ø":{"ha":694,"x_min":174,"x_max":694,"o":"m 521 938 l 694 938 l 694 764 l 521 764 l 521 938 m 347 764 l 521 764 l 521 590 l 347 590 l 347 764 m 174 590 l 347 590 l 347 417 l 521 417 l 521 590 l 694 590 l 694 417 l 694 243 l 694 69 l 521 69 l 521 -104 l 347 -104 l 347 -278 l 174 -278 l 174 -104 l 347 -104 l 347 69 l 521 69 l 521 243 l 347 243 l 347 69 l 174 69 l 174 243 l 174 417 l 174 590 z "},"ù":{"ha":694,"x_min":174,"x_max":694,"o":"m 174 938 l 347 939 l 347 764 l 519 764 l 519 589 l 694 590 l 694 417 l 694 243 l 694 69 l 694 -104 l 521 -104 l 347 -104 l 174 -104 l 174 69 l 174 243 l 174 417 l 174 590 l 347 589 l 347 69 l 519 69 l 519 589 l 347 589 l 347 764 l 174 764 l 174 938 z "},"ú":{"ha":694,"x_min":174,"x_max":694,"o":"m 521 938 l 694 939 l 694 764 l 521 764 l 521 938 m 347 764 l 521 764 l 521 590 l 347 590 l 347 764 m 174 590 l 347 590 l 347 243 l 347 69 l 521 69 l 521 243 l 521 417 l 521 590 l 694 590 l 694 417 l 694 243 l 694 69 l 694 -104 l 521 -104 l 347 -104 l 174 -104 l 174 69 l 174 243 l 174 417 l 174 590 z "},"û":{"ha":694,"x_min":174,"x_max":694,"o":"m 347 1111 l 521 1111 l 521 938 l 347 938 l 347 1111 m 174 938 l 347 938 l 347 764 l 174 764 l 174 938 m 521 938 l 694 938 l 694 764 l 521 764 l 521 938 m 174 590 l 347 590 l 347 243 l 347 69 l 521 69 l 521 243 l 521 417 l 521 590 l 694 590 l 694 417 l 694 243 l 694 69 l 694 -104 l 521 -104 l 347 -104 l 174 -104 l 174 69 l 174 243 l 174 417 l 174 590 z "},"ü":{"ha":694,"x_min":174,"x_max":694,"o":"m 521 938 l 694 939 l 694 764 l 521 764 l 521 938 m 174 590 l 347 589 l 347 243 l 347 69 l 521 69 l 521 243 l 521 417 l 521 590 l 694 590 l 694 417 l 694 243 l 694 69 l 694 -104 l 521 -104 l 347 -104 l 174 -104 l 174 69 l 174 243 l 174 417 l 174 590 m 174 938 l 347 939 l 347 764 l 174 764 l 174 938 z "},"ý":{"ha":694,"x_min":174,"x_max":694,"o":"m 521 1111 l 694 1113 l 694 938 l 521 938 l 521 1111 m 347 938 l 521 938 l 521 764 l 347 764 l 347 938 m 174 764 l 347 764 l 347 417 l 347 243 l 174 243 l 174 417 l 174 590 l 174 764 m 521 764 l 694 763 l 694 417 l 694 243 l 694 69 l 694 -104 l 521 -104 l 521 69 l 347 69 l 347 243 l 521 243 l 521 417 l 521 590 l 521 764 m 174 -104 l 521 -104 l 521 -278 l 347 -278 l 174 -278 l 174 -104 z "},"þ":{"ha":694,"x_min":0,"x_max":694,"o":"m 0 938 l 347 938 l 347 764 l 521 764 l 522 589 l 344 589 l 344 243 l 522 244 l 522 589 l 694 590 l 694 417 l 694 243 l 521 243 l 521 69 l 347 69 l 347 -104 l 174 -104 l 0 -104 l 0 69 l 174 69 l 174 243 l 174 417 l 174 590 l 174 764 l 0 764 l 0 938 z "},"ÿ":{"ha":694,"x_min":174,"x_max":694,"o":"m 521 1111 l 694 1113 l 694 938 l 521 938 l 521 1111 m 174 764 l 346 763 l 347 417 l 347 243 l 174 243 l 174 417 l 174 590 l 174 764 m 521 764 l 694 763 l 694 417 l 694 243 l 694 69 l 694 -104 l 521 -104 l 521 69 l 347 69 l 347 243 l 521 243 l 521 417 l 521 590 l 521 764 m 174 -104 l 521 -104 l 521 -278 l 347 -278 l 174 -278 l 174 -104 m 174 1111 l 346 1113 l 347 938 l 174 938 l 174 1111 z "}}}
